<?xml version="1.0" standalone="no"?>
<!DOCTYPE svg PUBLIC "-//W3C//DTD SVG 20010904//EN"
 "http://www.w3.org/TR/2001/REC-SVG-20010904/DTD/svg10.dtd">
<svg version="1.0" xmlns="http://www.w3.org/2000/svg"
 width="1619.000000pt" height="1040.000000pt" viewBox="0 0 1619.000000 1040.000000"
 preserveAspectRatio="xMidYMid meet">
<metadata>
Created by potrace 1.15, written by Peter Selinger 2001-2017
</metadata>
<g transform="translate(0.000000,1040.000000) scale(0.100000,-0.100000)"
fill="#000000" stroke="none">
<path d="M6543 9460 c2 -201 3 -210 22 -216 93 -29 446 -198 582 -280 244
-147 439 -290 632 -465 589 -532 1001 -1217 1195 -1985 71 -280 104 -523 113
-819 5 -165 9 -211 16 -185 12 44 2 614 -13 730 -100 798 -374 1485 -834 2095
-175 232 -479 549 -686 716 -283 228 -634 447 -919 573 -57 25 -105 46 -107
46 -1 0 -2 -95 -1 -210z"/>
<path d="M4610 8999 c-1109 -95 -2111 -617 -2831 -1474 -444 -529 -758 -1198
-883 -1885 -51 -283 -60 -393 -61 -745 0 -355 6 -438 56 -723 68 -398 189
-764 374 -1133 72 -145 225 -406 290 -494 179 -246 241 -321 412 -502 672
-713 1598 -1163 2592 -1258 178 -17 583 -20 746 -5 318 29 623 91 905 182 156
51 333 118 326 125 -2 3 -53 -11 -113 -31 -284 -93 -580 -152 -898 -177 -203
-16 -584 -6 -780 20 -863 116 -1628 493 -2235 1101 -1131 1131 -1445 2823
-797 4290 378 855 1071 1554 1927 1942 382 173 736 272 1170 324 180 22 636
25 810 5 1009 -114 1859 -555 2524 -1311 393 -447 683 -1000 830 -1588 14 -53
30 -126 37 -162 15 -82 32 -114 23 -45 -13 104 -56 325 -89 456 -159 630 -483
1238 -919 1724 -682 761 -1571 1221 -2606 1351 -149 18 -654 27 -810 13z"/>
<path d="M5315 8074 c-255 -19 -472 -53 -679 -105 -144 -36 -286 -80 -286 -90
0 -4 35 -44 78 -91 42 -46 94 -103 116 -127 l39 -44 176 56 c239 77 368 106
626 144 172 25 677 25 855 -1 407 -57 730 -156 1085 -331 375 -185 640 -379
944 -689 73 -75 135 -135 137 -134 7 8 -191 234 -306 348 -583 583 -1336 946
-2170 1045 -129 15 -511 27 -615 19z"/>
<path d="M5373 7130 c11 -237 61 -408 272 -935 139 -346 196 -514 220 -654 56
-320 -53 -512 -358 -632 -331 -131 -598 -310 -804 -540 -313 -348 -505 -791
-579 -1334 -25 -180 -25 -554 -1 -718 20 -130 71 -345 86 -360 12 -12 10 -16
46 108 161 548 341 995 533 1320 253 429 562 711 872 794 515 139 1076 -145
1748 -886 36 -40 70 -73 75 -73 21 0 -18 295 -60 455 -65 248 -150 403 -349
635 -132 155 -143 193 -89 301 50 98 147 149 355 186 81 15 171 17 603 18
l508 0 -6 -25 c-14 -58 -17 -222 -5 -282 46 -241 211 -445 414 -513 250 -83
604 24 817 248 l49 51 0 -147 0 -147 395 0 395 0 0 150 0 150 -95 0 -95 0 0
279 0 278 61 33 c40 21 80 34 119 37 75 7 106 -1 127 -34 16 -25 18 -68 23
-458 l5 -430 298 -3 297 -2 0 150 0 150 -95 0 -95 0 0 303 c0 320 -7 388 -50
484 -24 56 -90 127 -140 153 -129 66 -328 46 -486 -50 l-64 -39 0 55 0 54
-300 0 -300 0 0 -150 0 -150 95 0 95 0 0 -330 0 -330 -94 0 -94 0 39 78 c35
69 78 206 68 216 -2 2 -77 -6 -167 -17 l-163 -22 -36 -74 c-41 -86 -98 -147
-168 -181 -69 -33 -201 -35 -260 -3 -61 32 -151 131 -134 147 3 3 542 254 767
358 73 33 72 32 14 132 -88 152 -184 247 -306 306 -97 46 -160 60 -269 60
-179 0 -376 -87 -503 -222 -28 -29 -56 -64 -63 -76 -15 -28 -38 -28 -193 -2
-625 107 -1317 402 -1828 779 -110 81 -302 246 -405 347 -302 298 -544 656
-694 1028 -21 53 -42 100 -46 104 -4 4 -5 -54 -2 -128z m3762 -2151 c22 -10
60 -39 84 -63 l44 -45 -64 -29 c-35 -16 -108 -50 -161 -75 -54 -25 -98 -43
-98 -39 0 4 -4 2 -8 -4 -4 -6 -34 -23 -66 -38 -74 -33 -77 -30 -79 74 -1 53 3
81 12 76 5 -4 7 2 5 11 -5 23 13 46 53 67 18 9 49 30 68 48 58 51 127 56 210
17z"/>
<path d="M6892 6581 c2 -5 44 -41 93 -81 50 -39 91 -75 93 -79 1 -4 -75 -18
-170 -31 -95 -12 -181 -26 -192 -30 -14 -5 3 -19 79 -64 112 -67 119 -52 -60
-146 -66 -34 -128 -68 -138 -75 -21 -15 -20 -15 103 -36 41 -6 79 -15 83 -19
5 -4 -26 -26 -67 -49 -42 -23 -76 -44 -76 -47 0 -3 38 -3 85 1 l84 7 6 -28 c3
-16 11 -49 16 -73 27 -120 129 -239 251 -295 40 -19 124 -61 187 -95 80 -44
121 -61 137 -57 14 4 40 34 69 81 l47 75 58 0 c69 0 66 -5 75 130 6 77 11 102
32 134 15 24 27 59 30 95 6 54 11 61 139 220 74 91 132 166 130 168 -2 2 -52
-10 -112 -27 -60 -16 -115 -30 -121 -30 -9 0 -13 19 -13 63 0 34 -3 87 -7 117
l-6 54 -31 -67 -31 -66 -145 129 c-80 70 -146 127 -148 125 -2 -2 11 -36 28
-75 16 -40 28 -75 25 -78 -2 -3 -103 25 -222 61 -315 96 -314 96 -311 88z"/>
<path d="M11741 5279 c-190 -34 -375 -175 -461 -352 -22 -47 -47 -115 -55
-153 -19 -88 -19 -230 0 -319 46 -217 214 -390 440 -451 80 -22 321 -30 411
-15 96 17 210 63 279 114 90 66 178 169 159 187 -5 4 -75 29 -156 55 l-147 47
-54 -46 c-121 -103 -246 -127 -368 -69 -101 48 -148 107 -167 211 l-9 52 465
0 465 0 -6 93 c-8 123 -48 273 -93 354 -68 121 -203 229 -344 274 -75 24 -270
34 -359 18z m249 -292 c51 -26 106 -96 126 -162 l13 -45 -255 0 -254 0 6 28
c12 55 56 133 90 159 74 56 186 64 274 20z"/>
<path d="M13435 5264 c-38 -9 -106 -31 -150 -50 -44 -20 -86 -38 -92 -41 -9
-4 -13 8 -13 41 l0 46 -305 0 -305 0 0 -150 0 -150 105 0 105 0 0 -330 0 -330
-105 0 -105 0 0 -150 0 -150 410 0 410 0 0 150 0 150 -105 0 -105 0 2 272 3
273 35 17 c132 64 281 83 336 42 15 -11 37 -38 48 -60 20 -37 21 -57 24 -441
l3 -403 305 0 304 0 0 150 0 150 -105 0 -105 0 0 274 0 274 77 32 c89 37 192
56 246 46 54 -10 102 -57 116 -110 7 -29 11 -179 11 -430 l0 -386 305 0 305 0
0 150 0 150 -100 0 -100 0 0 258 c-1 296 -11 427 -40 504 -96 256 -496 292
-852 77 l-37 -22 -46 42 c-115 106 -292 144 -480 105z"/>
<path d="M10430 3849 c-69 -28 -97 -105 -65 -172 31 -66 136 -85 198 -37 37
29 41 59 10 73 -21 9 -27 9 -31 -1 -13 -40 -67 -55 -96 -26 -16 16 -21 71 -8
90 22 34 85 34 98 -1 4 -8 17 -15 30 -15 22 0 24 4 24 45 0 45 0 46 -32 44
-18 0 -49 2 -68 5 -19 3 -46 1 -60 -5z"/>
<path d="M10832 3847 c-51 -19 -72 -53 -72 -115 0 -46 4 -58 28 -82 52 -52
151 -50 201 4 46 49 34 144 -22 180 -32 21 -97 27 -135 13z"/>
<path d="M12184 3850 c-53 -17 -79 -54 -79 -115 0 -43 5 -59 24 -79 80 -85
231 -36 231 75 0 44 -21 89 -51 107 -26 17 -89 23 -125 12z"/>
<path d="M13624 3849 c-72 -21 -106 -111 -64 -177 43 -69 151 -80 210 -21 24
25 30 39 30 75 0 63 -21 98 -70 118 -45 18 -60 18 -106 5z"/>
<path d="M14974 3850 c-54 -17 -79 -54 -79 -117 0 -49 3 -58 32 -83 62 -55
164 -48 202 14 36 57 21 142 -30 174 -26 17 -89 23 -125 12z"/>
<path d="M8500 3830 c0 -11 7 -23 15 -26 11 -5 15 -23 15 -75 0 -55 -3 -69
-15 -69 -8 0 -15 -9 -15 -20 0 -19 7 -20 166 -20 l167 0 -6 30 c-7 34 5 47 23
25 9 -10 9 -15 1 -15 -6 0 -11 -9 -11 -20 0 -19 7 -20 115 -20 108 0 115 1
115 20 0 11 -4 20 -10 20 -5 0 -10 7 -10 15 0 10 10 15 30 15 20 0 30 -5 30
-15 0 -8 -7 -15 -15 -15 -8 0 -15 -9 -15 -20 0 -19 7 -20 115 -20 108 0 115 1
115 20 0 11 -7 20 -15 20 -12 0 -15 13 -15 60 0 33 2 60 4 60 2 0 17 -36 32
-80 23 -65 33 -80 49 -80 17 0 26 16 52 88 l32 87 0 -67 c1 -54 -2 -68 -14
-68 -8 0 -15 -9 -15 -20 0 -18 7 -20 60 -20 53 0 60 2 60 20 0 11 -4 20 -10
20 -6 0 -10 30 -10 70 0 40 4 70 10 70 6 0 10 11 10 25 0 25 -1 26 -62 23
l-63 -3 -21 -59 -21 -60 -20 60 -20 59 -61 3 c-61 3 -62 2 -62 -23 0 -14 5
-25 10 -25 6 0 10 -30 10 -70 0 -67 -1 -70 -24 -70 -21 0 -27 9 -47 67 -15 47
-18 68 -10 71 6 2 11 15 11 28 0 23 -2 24 -80 24 -79 0 -80 0 -80 -25 0 -16 6
-25 16 -25 9 0 14 -6 11 -12 -2 -7 -12 -39 -21 -70 -14 -50 -20 -58 -41 -58
-22 0 -75 53 -75 74 0 19 43 66 61 66 14 0 19 7 19 25 0 24 -3 25 -55 25 -54
0 -55 0 -55 -29 0 -17 -5 -33 -10 -36 -6 -4 -10 -3 -9 2 1 4 1 20 0 36 -1 26
-2 27 -61 27 -57 0 -60 -1 -60 -25 0 -17 6 -25 18 -25 9 0 27 -14 39 -31 l22
-32 -26 -38 c-28 -42 -63 -53 -63 -19 0 15 -7 20 -25 20 -18 0 -25 -5 -25 -20
0 -16 -7 -20 -30 -20 -25 0 -30 4 -30 25 0 21 5 25 30 25 25 0 30 4 30 25 0
21 -5 25 -30 25 -23 0 -30 4 -30 20 0 16 7 20 30 20 20 0 30 -5 30 -15 0 -9 9
-15 25 -15 23 0 25 4 25 40 l0 40 -105 0 c-99 0 -105 -1 -105 -20z"/>
<path d="M9550 3830 c0 -11 7 -23 15 -26 11 -5 15 -23 15 -75 0 -55 -3 -69
-15 -69 -8 0 -15 -9 -15 -20 0 -19 7 -20 110 -20 l110 0 0 40 c0 38 -2 40 -30
40 -23 0 -30 -4 -30 -20 0 -16 -7 -20 -30 -20 -25 0 -30 4 -30 25 0 21 5 25
30 25 25 0 30 4 30 25 0 21 -5 25 -30 25 -23 0 -30 4 -30 20 0 16 7 20 30 20
20 0 30 -5 30 -15 0 -10 10 -15 30 -15 28 0 30 2 30 40 l0 40 -110 0 c-104 0
-110 -1 -110 -20z"/>
<path d="M9860 3825 c0 -16 6 -25 15 -25 12 0 15 -14 15 -70 0 -56 -3 -70 -15
-70 -8 0 -15 -9 -15 -20 0 -18 7 -20 55 -20 48 0 55 2 55 20 0 11 -7 20 -15
20 -11 0 -15 12 -15 53 l0 52 46 -77 c40 -70 48 -78 74 -78 l30 0 0 95 c0 78
3 95 15 95 9 0 15 9 15 25 0 24 -3 25 -55 25 -52 0 -55 -1 -55 -25 0 -16 6
-25 15 -25 11 0 15 -11 15 -37 l0 -38 -37 63 -37 62 -53 0 c-50 0 -53 -1 -53
-25z"/>
<path d="M10150 3825 c0 -15 6 -25 14 -25 11 0 10 -14 -7 -70 -12 -42 -26 -70
-34 -70 -7 0 -13 -9 -13 -20 0 -18 7 -20 55 -20 48 0 55 2 55 20 0 11 -7 20
-15 20 -9 0 -12 6 -8 16 3 9 15 14 31 12 28 -3 44 -28 18 -28 -9 0 -16 -8 -16
-20 0 -18 7 -20 60 -20 49 0 60 3 60 16 0 9 -6 22 -14 28 -7 6 -23 39 -34 74
-17 51 -18 62 -6 62 8 0 14 10 14 25 0 25 -1 25 -80 25 -79 0 -80 0 -80 -25z"/>
<path d="M10600 3825 c0 -18 5 -25 20 -25 18 0 20 -7 20 -70 0 -63 -2 -70 -20
-70 -13 0 -20 -7 -20 -20 0 -18 7 -20 70 -20 63 0 70 2 70 20 0 11 -7 20 -15
20 -12 0 -15 14 -15 70 0 56 3 70 15 70 9 0 15 9 15 25 0 24 -2 25 -70 25 -68
0 -70 -1 -70 -25z"/>
<path d="M11030 3830 c0 -11 7 -23 15 -26 11 -5 15 -23 15 -75 0 -55 -3 -69
-15 -69 -8 0 -15 -9 -15 -20 0 -18 7 -20 55 -20 48 0 55 2 55 20 0 11 -7 20
-15 20 -11 0 -15 12 -15 53 1 49 2 51 16 32 8 -11 29 -46 46 -77 26 -50 35
-58 59 -58 l29 0 0 95 c0 78 3 95 15 95 9 0 15 9 15 25 0 24 -3 25 -55 25 -48
0 -55 -3 -55 -20 0 -10 7 -23 16 -28 10 -5 14 -19 12 -36 -3 -27 -5 -25 -33
25 l-31 54 -57 3 c-52 3 -57 1 -57 -18z"/>
<path d="M11330 3826 c0 -13 5 -26 10 -28 16 -5 -28 -138 -45 -138 -8 0 -15
-9 -15 -20 0 -18 7 -20 55 -20 48 0 55 2 55 20 0 11 -4 20 -10 20 -5 0 -10 7
-10 15 0 10 10 15 30 15 20 0 30 -5 30 -15 0 -8 -4 -15 -10 -15 -5 0 -10 -9
-10 -20 0 -19 7 -20 165 -20 l165 0 0 55 c0 52 -1 55 -25 55 -22 0 -25 -4 -25
-35 0 -32 -2 -35 -30 -35 l-30 0 0 70 c0 56 3 70 15 70 9 0 15 9 15 25 0 24
-2 25 -65 25 -63 0 -65 -1 -65 -25 0 -16 6 -25 15 -25 12 0 15 -14 15 -70 l0
-70 -30 0 c-27 0 -30 4 -49 68 -12 39 -17 68 -11 70 6 2 10 15 10 28 0 23 -2
24 -75 24 -73 0 -75 -1 -75 -24z"/>
<path d="M11820 3829 c0 -12 8 -23 20 -26 18 -5 20 -14 20 -74 0 -62 -2 -69
-20 -69 -13 0 -20 -7 -20 -20 0 -19 7 -20 98 -20 97 0 99 1 128 31 25 26 29
38 29 85 0 50 -3 59 -33 85 -31 28 -36 29 -127 29 -90 0 -95 -1 -95 -21z"/>
<path d="M12460 3830 c0 -11 7 -23 15 -26 11 -5 15 -23 15 -75 0 -55 -3 -69
-15 -69 -8 0 -15 -9 -15 -20 0 -19 7 -20 105 -20 l105 0 0 40 c0 36 -2 40 -25
40 -18 0 -25 -5 -25 -20 0 -16 -7 -20 -30 -20 -25 0 -30 4 -30 25 0 21 5 25
30 25 25 0 30 4 30 25 0 21 -5 25 -30 25 -23 0 -30 4 -30 20 0 16 7 20 30 20
20 0 30 -5 30 -15 0 -9 9 -15 25 -15 23 0 25 4 25 40 l0 40 -105 0 c-99 0
-105 -1 -105 -20z"/>
<path d="M12680 3825 c0 -18 5 -25 20 -25 18 0 20 -7 20 -70 0 -63 -2 -70 -20
-70 -13 0 -20 -7 -20 -20 0 -18 7 -20 55 -20 48 0 55 2 55 20 0 11 -4 20 -10
20 -5 0 -10 21 -10 47 l0 47 43 -69 c34 -56 48 -71 70 -73 l27 -3 0 94 c0 86
2 95 20 100 12 3 20 14 20 26 0 19 -6 21 -60 21 -53 0 -60 -2 -60 -20 0 -10 7
-23 16 -28 10 -5 14 -19 12 -36 -3 -27 -5 -25 -33 25 l-31 54 -57 3 c-55 3
-57 2 -57 -23z"/>
<path d="M12972 3838 c-35 -45 -20 -90 42 -123 34 -18 44 -34 30 -48 -10 -9
-34 4 -34 19 0 8 -10 14 -25 14 -23 0 -25 -4 -25 -41 0 -39 2 -41 25 -37 14 3
28 1 31 -3 10 -17 55 -9 79 16 46 45 26 95 -55 138 -26 14 -31 20 -21 30 10 9
16 7 31 -10 10 -13 28 -23 39 -23 18 0 21 6 21 40 l0 40 -64 0 c-39 0 -67 -5
-74 -12z"/>
<path d="M13130 3825 c0 -16 6 -25 15 -25 12 0 15 -14 15 -70 0 -56 -3 -70
-15 -70 -8 0 -15 -9 -15 -20 0 -18 7 -20 65 -20 58 0 65 2 65 20 0 11 -7 20
-15 20 -12 0 -15 14 -15 70 0 56 3 70 15 70 9 0 15 9 15 25 0 24 -2 25 -65 25
-63 0 -65 -1 -65 -25z"/>
<path d="M13270 3825 c0 -16 6 -25 15 -25 12 0 15 -14 15 -70 0 -56 -3 -70
-15 -70 -8 0 -15 -9 -15 -20 0 -18 7 -20 55 -20 48 0 55 2 55 20 0 11 -7 20
-15 20 -11 0 -15 12 -15 53 l0 52 46 -77 c41 -69 50 -78 75 -78 l29 0 0 95 c0
78 3 95 15 95 9 0 15 9 15 25 0 24 -3 25 -55 25 -52 0 -55 -1 -55 -25 0 -16 6
-25 15 -25 11 0 15 -11 15 -37 l0 -38 -37 63 -37 62 -53 0 c-50 0 -53 -1 -53
-25z"/>
<path d="M13900 3830 c0 -11 7 -23 15 -26 11 -5 15 -23 15 -75 0 -55 -3 -69
-15 -69 -8 0 -15 -9 -15 -20 0 -18 7 -20 55 -20 48 0 55 2 55 20 0 11 -7 20
-15 20 -12 0 -15 13 -15 63 1 60 1 61 14 32 7 -16 21 -54 30 -83 27 -79 49
-70 91 38 l34 85 0 -67 c1 -54 -2 -68 -14 -68 -8 0 -15 -9 -15 -20 0 -18 7
-20 60 -20 53 0 60 2 60 20 0 11 -7 20 -15 20 -12 0 -15 14 -15 70 0 56 3 70
15 70 9 0 15 9 15 25 0 24 -2 25 -63 25 l-64 0 -18 -54 c-10 -30 -22 -53 -26
-50 -4 2 -15 27 -24 54 l-17 50 -64 0 c-58 0 -64 -2 -64 -20z"/>
<path d="M14250 3825 c0 -16 6 -25 15 -25 12 0 15 -14 15 -70 0 -56 -3 -70
-15 -70 -8 0 -15 -9 -15 -20 0 -19 7 -20 105 -20 l105 0 0 40 c0 36 -2 40 -25
40 -18 0 -25 -5 -25 -20 0 -16 -7 -20 -30 -20 -25 0 -30 4 -30 25 0 21 5 25
30 25 25 0 30 4 30 25 0 21 -5 25 -30 25 -23 0 -30 4 -30 20 0 16 7 20 30 20
20 0 30 -5 30 -15 0 -9 9 -15 25 -15 23 0 25 4 25 40 l0 40 -105 0 -105 0 0
-25z"/>
<path d="M14470 3825 c0 -18 5 -25 20 -25 18 0 20 -7 20 -70 0 -63 -2 -70 -20
-70 -13 0 -20 -7 -20 -20 0 -19 7 -20 94 -20 79 0 97 3 119 20 54 43 54 147 0
189 -22 18 -40 21 -119 21 -94 0 -94 0 -94 -25z"/>
<path d="M14740 3825 c0 -16 6 -25 15 -25 12 0 15 -14 15 -70 0 -56 -3 -70
-15 -70 -8 0 -15 -9 -15 -20 0 -18 7 -20 70 -20 63 0 70 2 70 20 0 13 -7 20
-20 20 -18 0 -20 7 -20 70 0 63 2 70 20 70 15 0 20 7 20 25 0 24 -2 25 -70 25
-68 0 -70 -1 -70 -25z"/>
</g>
</svg>
